<?xml version="1.0" encoding="utf-8"?>
<?xml-stylesheet type="text/xsl" href="rss1.xsl"?>
<rss version="2.0" xmlns:atom="http://www.w3.org/2005/Atom" xmlns:content="http://purl.org/rss/1.0/modules/content/" xmlns:dc="http://purl.org/dc/elements/1.1/" xmlns:media="http://search.yahoo.com/mrss/">
<channel>
 <title>Getty</title>
 <link>http://www.gettyimg.com/</link>
 <atom:link href="http://www.gettyimg.com/" rel="self" type="application/rss+xml" />

 
                <item>
                <title><![CDATA[【Singles (lossless)】Sia, Kylie Minogue - Dance Alone (Remixes) (2024) [Qobuz 16bit/44.1kHz] [FLAC]]]></title>
                <link><![CDATA[https://sharemania.us/threads/sia-kylie-minogue-dance-alone-remixes-2024-qobuz-16bit-44-1khz-flac.251519/]]></link>
                <description><![CDATA[<article>
<blockquote class="messageText SelectQuoteContainer ugc baseHtml">
Tracklist:<br>
<br>
01. Dance Alone<br>
02. Dance Alone (Ofenbach Remix)<br>
03. Dance Alone (Kito Remix)<br>
04. Dance Alone (Malibu Babie Remix)<br>
05. Dance Alone (Pure Shores Remix)<br>
06. Dance Alone (Gab Rhome Remix)<br>
07. Dance Alone (Extended Mix)<br>
08. Dance Alone (Slowed Down)<br>
09. Dance Alone (Sped Up)<br>
<br>
<div class="bbCodeBlock bbCodeVfcHH HiddenContent">
<div class="attribution type">Hidden Content:</div>
<blockquote>You must reply before you can see the hidden data contained here.</blockquote>
</div>
<div class="messageTextEndMarker">&nbsp;</div>
</blockquote>
</article>]]></description>
                <author><![CDATA[phechft]]></author>
                </item>

                
                <item>
                <title><![CDATA[【Bugs!】BLACKSWAN - Roll Up (Bugs! 4K)]]></title>
                <link><![CDATA[https://sharemania.us/threads/blackswan-roll-up-bugs-4k.251518/]]></link>
                <description><![CDATA[<article>
<blockquote class="messageText SelectQuoteContainer ugc baseHtml">
<span data-s9e-mediaembed="youtube" style="display:inline-block;width:100%;max-width:640px"><span style="display:block;overflow:hidden;position:relative;padding-bottom:56.25%"><iframe allowfullscreen="" loading="lazy" scrolling="no" style="background:url(https://i.ytimg.com/vi/ulvCwyKrwqw/hqdefault.jpg) 50% 50% / cover;border:0;height:100%;left:0;position:absolute;width:100%" src="https://www.youtube.com/embed/ulvCwyKrwqw"></iframe></span></span><br>
<div class="ToggleTriggerAnchor bbCodeSpoilerContainer">
<button type="button" class="button bbCodeSpoilerButton ToggleTrigger Tooltip JsOnly" data-target="> .SpoilerTarget"><span>Spoiler: <span class="SpoilerTitle">MediaInfo</span></span></button>
<div class="SpoilerTarget bbCodeSpoilerText">General<br>
Complete name : ./bugs/BLACKSWAN - Roll Up (Bugs! 4K).mp4<br>
Format : MPEG-4<br>
Format profile : Base Media / Version 2<br>
Codec ID : mp42 (mp42/mp41)<br>
File size : 2.07 GiB<br>
Duration : 3 min 16 s<br>
Overall bit rate mode : Variable<br>
Overall bit rate : 90.7 Mb/s<br>
Frame rate : 25.000 FPS<br>
Encoded date : 2024-07-29 11:32:49 UTC<br>
Tagged date : 2024-07-29 11:33:06 UTC<br>
TIM : 00:00:04:19<br>
TSC : 25<br>
TSZ : 1<br>
<br>
Video<br>
ID : 1<br>
Format : AVC<br>
Format/Info : Advanced Video Codec<br>
Format profile : Main@L5.1<br>
Format settings : CABAC / 4 Ref Frames<br>
Format settings, CABAC : Yes<br>
Format settings, Reference frames : 4 frames<br>
Format settings, GOP : M=4, N=25<br>
Codec ID : avc1<br>
Codec ID/Info : Advanced Video Coding<br>
Duration : 3 min 16 s<br>
Bit rate : 90.4 Mb/s<br>
Width : 3 840 pixels<br>
Height : 2 160 pixels<br>
Display aspect ratio : 16:9<br>
Frame rate mode : Constant<br>
Frame rate : 25.000 FPS<br>
Color space : YUV<br>
Chroma subsampling : 4:2:0<br>
Bit depth : 8 bits<br>
Scan type : Progressive<br>
Bits/(Pixel*Frame) : 0.436<br>
Stream size : 2.07 GiB (100%)<br>
Language : English<br>
Encoded date : 2024-07-29 11:32:49 UTC<br>
Tagged date : 2024-07-29 11:32:49 UTC<br>
Color range : Limited<br>
Color primaries : BT.709<br>
Transfer characteristics : BT.709<br>
Matrix coefficients : BT.709<br>
Codec configuration box : avcC<br>
<br>
Audio<br>
ID : 2<br>
Format : AAC LC<br>
Format/Info : Advanced Audio Codec Low Complexity<br>
Codec ID : mp4a-40-2<br>
Duration : 3 min 16 s<br>
Source duration : 3 min 16 s<br>
Bit rate mode : Variable<br>
Bit rate : 317 kb/s<br>
Maximum bit rate : 548 kb/s<br>
Channel(s) : 2 channels<br>
Channel layout : L R<br>
Sampling rate : 48.0 kHz<br>
Frame rate : 46.875 FPS (1024 SPF)<br>
Compression mode : Lossy<br>
Stream size : 7.42 MiB (0%)<br>
Source stream size : 7.42 MiB (0%)<br>
Language : English<br>
Encoded date : 2024-07-29 11:32:49 UTC<br>
Tagged date : 2024-07-29 11:32:49 UTC</div>
</div>
<div class="bbCodeBlock bbCodeVfcHH HiddenContent">
<div class="attribution type">Hidden Content:</div>
<blockquote>You must either reply or click 'Like' to see the hidden information contained here.</blockquote>
</div>
<div class="messageTextEndMarker">&nbsp;</div>
</blockquote>
</article>]]></description>
                <author><![CDATA[Once14]]></author>
                </item>

                
                <item>
                <title><![CDATA[【Bugs!】BLACKSWAN - Cat &amp; Mouse (Bugs! 4K)]]></title>
                <link><![CDATA[https://sharemania.us/threads/blackswan-cat-mouse-bugs-4k.251517/]]></link>
                <description><![CDATA[<article>
<blockquote class="messageText SelectQuoteContainer ugc baseHtml">
<span data-s9e-mediaembed="youtube" style="display:inline-block;width:100%;max-width:640px"><span style="display:block;overflow:hidden;position:relative;padding-bottom:56.25%"><iframe allowfullscreen="" loading="lazy" scrolling="no" style="background:url(https://i.ytimg.com/vi/B8hHESMUaDA/hqdefault.jpg) 50% 50% / cover;border:0;height:100%;left:0;position:absolute;width:100%" src="https://www.youtube.com/embed/B8hHESMUaDA"></iframe></span></span><br>
<div class="ToggleTriggerAnchor bbCodeSpoilerContainer">
<button type="button" class="button bbCodeSpoilerButton ToggleTrigger Tooltip JsOnly" data-target="> .SpoilerTarget"><span>Spoiler: <span class="SpoilerTitle">MediaInfo</span></span></button>
<div class="SpoilerTarget bbCodeSpoilerText">General<br>
Complete name : ./bugs/BLACKSWAN - Cat &amp; Mouse (Bugs! 4K).mp4<br>
Format : MPEG-4<br>
Format profile : Base Media / Version 2<br>
Codec ID : mp42 (mp42/mp41)<br>
File size : 1.24 GiB<br>
Duration : 2 min 57 s<br>
Overall bit rate mode : Variable<br>
Overall bit rate : 59.9 Mb/s<br>
Frame rate : 23.976 FPS<br>
Encoded date : 2023-09-05 02:36:24 UTC<br>
Tagged date : 2023-09-05 02:38:02 UTC<br>
TIM : 00:00:00:00<br>
TSC : 24000<br>
TSZ : 1001<br>
<br>
Video<br>
ID : 1<br>
Format : AVC<br>
Format/Info : Advanced Video Codec<br>
Format profile : Main@L5.1<br>
Format settings : CABAC / 2 Ref Frames<br>
Format settings, CABAC : Yes<br>
Format settings, Reference frames : 2 frames<br>
Codec ID : avc1<br>
Codec ID/Info : Advanced Video Coding<br>
Duration : 2 min 57 s<br>
Bit rate : 59.6 Mb/s<br>
Width : 3 840 pixels<br>
Height : 2 160 pixels<br>
Display aspect ratio : 16:9<br>
Frame rate mode : Constant<br>
Frame rate : 23.976 (24000/1001) FPS<br>
Color space : YUV<br>
Chroma subsampling : 4:2:0<br>
Bit depth : 8 bits<br>
Scan type : Progressive<br>
Bits/(Pixel*Frame) : 0.300<br>
Stream size : 1.23 GiB (99%)<br>
Language : English<br>
Encoded date : 2023-09-05 02:36:24 UTC<br>
Tagged date : 2023-09-05 02:36:24 UTC<br>
Color range : Limited<br>
Color primaries : BT.709<br>
Transfer characteristics : BT.709<br>
Matrix coefficients : BT.709<br>
Codec configuration box : avcC<br>
<br>
Audio<br>
ID : 2<br>
Format : AAC LC<br>
Format/Info : Advanced Audio Codec Low Complexity<br>
Codec ID : mp4a-40-2<br>
Duration : 2 min 57 s<br>
Source duration : 2 min 57 s<br>
Bit rate mode : Variable<br>
Bit rate : 317 kb/s<br>
Maximum bit rate : 419 kb/s<br>
Channel(s) : 2 channels<br>
Channel layout : L R<br>
Sampling rate : 48.0 kHz<br>
Frame rate : 46.875 FPS (1024 SPF)<br>
Compression mode : Lossy<br>
Stream size : 6.70 MiB (1%)<br>
Source stream size : 6.70 MiB (1%)<br>
Language : English<br>
Encoded date : 2023-09-05 02:36:26 UTC<br>
Tagged date : 2023-09-05 02:36:26 UTC</div>
</div>
<div class="bbCodeBlock bbCodeVfcHH HiddenContent">
<div class="attribution type">Hidden Content:</div>
<blockquote>You must either reply or click 'Like' to see the hidden information contained here.</blockquote>
</div>
<div class="messageTextEndMarker">&nbsp;</div>
</blockquote>
</article>]]></description>
                <author><![CDATA[Once14]]></author>
                </item>

                </channel></rss>